<svg t="1748172418348" class="icon" viewBox="0 0 1024 1024" version="1.1"
    xmlns="http://www.w3.org/2000/svg" p-id="38606" width="200" height="200">
    <path
        d="M62.124919 178.688705 62.124919 911.584698c9.120728 12.362562 6.109138 15.518438 15.142885 27.881001 12.218276 9.293667 15.228843 6.137791 27.361161 15.431457l667.590638 0c15.228843-12.362562 21.252023-9.293667 33.383318-27.79402 15.228843-24.725124 9.120728-151.594627 9.120728-185.613418 0-83.46904 0-170.005952 0-256.631892-15.142885 6.224772-21.252023 18.587334-30.372751 27.882024-42.504046 40.156582-27.275203 24.725124-27.275203 148.349723 0 77.331249 0 157.731394 0 235.063667l0 0-18.240433 3.068895c-103.162568 0-591.70225 3.1569-622.075001 0-3.01159-34.018791 0-565.869908 0-667.926282l0-34.018791c0-6.137791 0-3.068895 3.01159-6.137791l373.244796 0c21.252023 0 45.515636-27.881001 60.744479-46.469358 9.120728-6.137791 6.02318 0 9.120728-9.205663L156.166759 135.464251C83.376942 135.464251 89.485057 135.464251 62.124919 178.688705L62.124919 178.688705z"
        fill="#231915" p-id="38607"></path>
    <path
        d="M362.578876 648.728034c6.02318-30.862915 21.252023-74.175373 30.286794-105.125269 6.109138-27.79402 3.097548-30.861892 21.252023-46.381353l300.453956-306.08214c54.636365-52.606125 97.140411-120.643708 157.798932-61.899792 60.658522 58.743916 0 98.987478-60.658522 160.800289L541.629831 559.121204c-39.492456 40.156582-33.383318 43.224454-78.898955 55.587016C432.358125 627.158786 392.865669 642.590244 362.578876 648.728034L362.578876 648.728034zM954.281125 194.208167l0-34.018791c-6.02318-12.362562-9.03477-27.881001-15.142885-40.243563-33.384341-52.519144-69.77925-58.743916-91.031273-71.106478l-39.492456 0c-18.154475 9.293667-33.383318 12.362562-51.538817 24.725124C735.823672 89.082898 465.741443 364.302123 423.237397 407.5276c-15.142885 15.518438-66.76766 61.900815-72.79084 77.331249-9.120728 27.882024-36.480866 129.850393-51.624774 173.162852-6.02318 18.587334-18.154475 46.381353 0 58.743916 15.142885 15.518438 88.019683-15.431457 109.271706-24.725124 27.275203-6.137791 94.042863-24.725124 112.283296-37.087687L781.339308 398.320914c12.131295-12.450567 24.263613-27.881001 36.394908-40.243563 21.252023-18.587334 97.140411-92.762707 112.283296-111.350041C942.14983 225.070059 945.247378 212.707496 954.281125 194.208167L954.281125 194.208167z"
        fill="#231915" p-id="38608"></path>
    <path
        d="M757.075695 896.15324 119.771851 896.15324 119.771851 191.139272c-3.01159 3.068895-3.01159 0-3.01159 6.137791l0 34.018791c0 102.056374-3.01159 633.907491 0 667.926282 30.372751 3.1569 518.912433 0 622.075001 0L757.075695 896.15324 757.075695 896.15324 757.075695 896.15324z"
        fill="#231915" p-id="38609"></path>
    <path
        d="M62.124919 954.897156l42.504046 0c-12.131295-9.293667-15.142885-6.137791-27.361161-15.431457-9.03477-12.362562-6.02318-15.518438-15.142885-27.881001L62.124919 954.897156z"
        fill="#231915" p-id="38610"></path>
</svg>