<svg t="1748172556485" class="icon" viewBox="0 0 1024 1024" version="1.1"
    xmlns="http://www.w3.org/2000/svg" p-id="45960" width="200" height="200">
    <path
        d="M774.50000029 204.49999971A82.50000029 82.50000029 0 0 1 856.99999971 287v524.99999971a82.50000029 82.50000029 0 0 1-82.49999942 82.50000029H249.49999971A82.50000029 82.50000029 0 0 1 167.00000029 811.99999971V287A82.50000029 82.50000029 0 0 1 249.49999971 204.49999971a29.99999971 29.99999971 0 1 0 0-59.99999942A142.49999971 142.49999971 0 0 0 107 287v524.99999971A142.49999971 142.49999971 0 0 0 249.49999971 954.50000029h525.00000058a142.49999971 142.49999971 0 0 0 142.49999971-142.50000058V287A142.49999971 142.49999971 0 0 0 774.50000029 144.50000029a29.99999971 29.99999971 0 1 0 0 59.99999942z"
        p-id="45961"></path>
    <path
        d="M475.47500029 99.50000029l-0.45 581.24999971a29.99999971 29.99999971 0 0 0 59.99999942 0L535.47499971 99.50000029a29.99999971 29.99999971 0 0 0-59.99999942 0z"
        p-id="45962"></path>
    <path
        d="M504.87499971 648.83750029l-181.87499971-173.3625a29.99999971 29.99999971 0 0 0-41.4 43.46249942l189.71250029 180.7875a48.75000029 48.75000029 0 0 0 67.53749942-0.26249942l186.71250058-180.71250029a29.99999971 29.99999971 0 0 0-41.7375-43.12500029L504.87499971 648.87499971z"
        p-id="45963"></path>
</svg>