<svg t="1748172306185" class="icon" viewBox="0 0 1024 1024" version="1.1"
    xmlns="http://www.w3.org/2000/svg" p-id="24835" width="200" height="200">
    <path
        d="M512 81.465C274.223 81.465 81.465 274.222 81.465 512S274.221 942.535 512 942.535c237.776 0 430.535-192.756 430.535-430.535S749.777 81.465 512 81.465z m0 804.279c-206.413 0-373.743-167.331-373.743-373.743S305.588 138.257 512 138.257s373.743 167.331 373.743 373.744S718.412 885.744 512 885.744z m58.193-364.989c4.018-8.407 6.272-17.821 6.272-27.76 0-24.174-13.313-45.226-33-56.26V248.949c0-6.781-5.498-12.28-12.28-12.28h-38.372c-6.781 0-12.28 5.498-12.28 12.28v187.785c-19.686 11.034-33 32.088-33 56.26 0 35.603 28.862 64.465 64.465 64.465a64.251 64.251 0 0 0 24.82-4.959l177.381 177.382c4.797 4.797 12.571 4.797 17.367 0l15.194-15.194c4.797-4.795 4.797-12.569 0-17.367L570.192 520.755z"
        fill="#333333" p-id="24836"></path>
</svg>