<svg t="1748172250661" class="icon" viewBox="0 0 1024 1024" version="1.1"
    xmlns="http://www.w3.org/2000/svg" p-id="22864" width="200" height="200">
    <path
        d="M224 831.936V192.096L223.744 192 800 192.096 800.256 832 224 831.936zM800.256 128H223.744A64 64 0 0 0 160 192.096v639.84A64 64 0 0 0 223.744 896h576.512A64 64 0 0 0 864 831.936V192.096A64 64 0 0 0 800.256 128z"
        fill="#3E3A39" p-id="22865"></path>
    <path
        d="M640 416h-256a32 32 0 0 0 0 64h256a32 32 0 0 0 0-64M640 576h-256a32 32 0 0 0 0 64h256a32 32 0 0 0 0-64"
        fill="#3E3A39" p-id="22866"></path>
</svg>