<svg t="1748172194975" class="icon" viewBox="0 0 1024 1024" version="1.1" xmlns="http://www.w3.org/2000/svg" p-id="20004" width="200" height="200"><path d="M294.4128 7.6288c-1.024-0.1024-2.048-0.3072-3.072-0.3072H147.904A135.1168 135.1168 0 0 0 12.9408 142.336v143.36c0 1.0496 0.2048 2.048 0.3072 3.072a31.0528 31.0528 0 0 0 30.8224 28.0576c16.128 0 29.2608-12.3392 30.8224-28.0576 0.1024-1.024 0.3072-2.0224 0.3072-3.072V142.336a72.8576 72.8576 0 0 1 72.7552-72.7296h143.36c1.0752 0 2.048-0.2048 3.072-0.3328a31.0272 31.0272 0 0 0 28.0576-30.7968c0-16.1536-12.3136-29.2608-28.032-30.848M294.4128 941.6192c-1.024-0.1024-2.048-0.3072-3.072-0.3072H147.904a72.8576 72.8576 0 0 1-72.704-72.8576v-143.0016c0-1.0752-0.2304-2.048-0.3328-3.072a31.0272 31.0272 0 0 0-30.8224-28.0832c-16.128 0-29.2608 12.3392-30.8224 28.0576-0.1024 1.024-0.3072 2.048-0.3072 3.072v143.0784a135.2704 135.2704 0 0 0 135.0144 135.1168h146.432v-0.0512h-3.072c1.0752 0 2.048-0.2048 3.072-0.3072a31.0272 31.0272 0 0 0 28.0576-30.8224c0-16.1536-12.3136-29.2608-28.032-30.8224" fill="#000000" p-id="20005"></path><path d="M1009.2672 244.6848V142.3104A135.1424 135.1424 0 0 0 874.2272 7.3216H730.7392c-1.0752 0-2.048 0.2048-3.072 0.3072A31.0272 31.0272 0 0 0 699.584 38.4512c0 16.128 12.3136 29.2608 28.032 30.8224 1.024 0.1024 2.048 0.3072 3.072 0.3072H874.2272a72.8576 72.8576 0 0 1 72.8064 72.7296v143.36c0 1.0752 0.2048 2.048 0.3072 3.072a31.0272 31.0272 0 0 0 30.8224 28.0832c16.128 0 29.2608-12.3392 30.8224-28.0576 0.1024-1.024 0.3072-2.048 0.3072-3.072V244.6592z" fill="#000000" p-id="20006"></path><path d="M1008.96 722.3552A31.0272 31.0272 0 0 0 978.1376 694.2976c-16.128 0-29.2608 12.3392-30.8224 28.0576-0.1024 1.024-0.3072 2.048-0.3072 3.072v143.0016A72.8576 72.8576 0 0 1 874.2016 941.2864H730.7392c-1.0752 0-2.048 0.2304-3.072 0.3328a31.0272 31.0272 0 0 0-28.0832 30.8224c0 16.128 12.3392 29.2352 28.0576 30.8224 1.024 0.1024 2.048 0.3072 3.072 0.3072h71.1168v0.0512H874.2272a135.1936 135.1936 0 0 0 135.0656-135.168V725.4272c0-1.0752-0.2048-2.048-0.3072-3.072" fill="#000000" p-id="20007"></path><path d="M978.1376 536.6272H44.0704a31.1296 31.1296 0 1 1 0-62.2848h934.0672a31.1296 31.1296 0 0 1 0 62.2848" fill="#000000" p-id="20008"></path></svg>