<svg t="1748172641888" class="icon" viewBox="0 0 1024 1024" version="1.1"
    xmlns="http://www.w3.org/2000/svg" p-id="51024" width="200" height="200">
    <path
        d="M637.76256 375.48544c-31.6416 31.88736-76.68224 51.87584-126.01344 51.87584-24.2944 0-47.06304-4.80768-68.32128-13.15328-21.76-8.8576-41.25184-22.272-57.44128-38.72256-9.10336-9.10336-24.28928-9.35936-33.14176 0-9.61536 9.10848-9.61536 24.2944-0.50688 32.90112 20.74624 20.74112 46.0544 37.95456 73.37984 49.34144 26.56768 10.88 55.66464 16.95744 86.03648 16.95744 62.24384 0 118.67136-25.30304 159.66208-65.792 9.35936-9.10848 9.35936-24.2944 0-33.40288C662.2976 366.12608 647.11168 366.12608 637.76256 375.48544L637.76256 375.48544zM693.67808 888.39168 693.67808 888.39168 330.32192 888.39168c-12.90752 0-23.7824 10.88-23.7824 23.7824 0 13.40928 10.88 23.7824 23.7824 23.7824l363.36128 0c12.65152 0 23.28064-10.368 23.28064-23.7824C716.95872 899.27168 706.3296 888.39168 693.67808 888.39168L693.67808 888.39168zM901.91872 396.2368 901.91872 396.2368c0-107.78624-43.52-205.2096-114.62144-276.05504C716.95872 49.83296 619.54048 5.5552 511.74912 5.5552c-107.2896 0-205.2096 44.27776-275.80416 114.62656C165.59616 191.0272 122.07616 288.45056 122.07616 396.2368c0 69.33504 17.96096 134.61504 49.5872 191.04256 30.11584 51.62496 70.6048 96.4096 119.43936 130.05312l0 109.568c0 21.504 17.71008 39.72608 39.2192 39.72608l363.36128 0c21.76 0 38.95808-18.22208 38.95808-39.72608l0-109.568c49.09056-33.64352 90.09152-78.42816 119.17824-130.05312C883.95776 530.34496 901.91872 465.57184 901.91872 396.2368L901.91872 396.2368zM783.50848 548.56192 783.50848 548.56192l-0.52224 0c-26.56256 46.8224-64.26112 86.54336-110.32064 113.86368-11.63776 7.0912-18.21184 20.24448-18.21184 33.89952l-0.75776 0 0 90.83904L370.304 787.16416l0-90.83904c0-16.44032-9.36448-29.84448-22.77888-35.41504-44.032-28.08832-81.47968-66.29376-106.77248-112.34816-25.55904-45.04064-39.7312-97.15712-39.7312-152.32512 0-85.77536 34.92352-163.70688 91.09504-219.87328 55.92576-56.42752 134.36416-91.36128 219.63776-91.36128 86.02112 0 163.96288 34.92864 219.88352 91.36128 56.42752 56.1664 91.10016 134.09792 91.10016 219.87328C822.72768 451.91168 808.81152 504.03328 783.50848 548.56192L783.50848 548.56192zM617.0112 971.38176 617.0112 971.38176 406.7328 971.38176c-13.15328 0-23.77728 10.37312-23.77728 23.28064 0 12.90752 10.624 23.78752 23.77728 23.78752l210.27328 0c12.90752 0 23.7824-10.87488 23.7824-23.78752C640.78848 981.75488 629.91872 971.38176 617.0112 971.38176L617.0112 971.38176z"
        fill="#231815" p-id="51025"></path>
</svg>