<svg t="1748172499990" class="icon" viewBox="0 0 1024 1024" version="1.1"
    xmlns="http://www.w3.org/2000/svg" p-id="44102" width="200" height="200">
    <path
        d="M512 661.89c12.1 0 22.52-7.17 27.27-17.49l239.39 87.13a30.02 30.02 0 0 0 10.26 1.82c12.25 0 23.76-7.57 28.19-19.75 5.67-15.57-2.36-32.79-17.93-38.45L542 581.55V411.9c0-16.57-13.43-30-30-30s-30 13.43-30 30v148.75c-13.4-1.44-26.55 6.34-31.37 19.57-5.67 15.57 2.36 32.79 17.93 38.45l13.44 4.89v8.33c0 16.57 13.43 30 30 30z"
        fill="#231815" p-id="44103"></path>
    <path
        d="M858.67 136.67H739.49v-100c0-16.57-13.43-30-30-30s-30 13.43-30 30v100H632c-16.57 0-30 13.43-30 30s13.43 30 30 30h47.49v60c0 16.57 13.43 30 30 30s30-13.43 30-30v-60h119.17C915.64 196.67 962 243.02 962 300v560c0 56.98-46.36 103.33-103.33 103.33H165.33C108.35 963.33 62 916.98 62 860V300c0-56.98 46.35-103.33 103.33-103.33H284.5v60c0 16.57 13.43 30 30 30s30-13.43 30-30v-60H392c16.57 0 30-13.43 30-30s-13.43-30-30-30h-47.49v-100c0-16.57-13.43-30-30-30s-30 13.43-30 30v100H165.33C75.27 136.67 2 209.94 2 300v560c0 90.06 73.27 163.33 163.33 163.33h693.33c90.06 0 163.33-73.27 163.33-163.33V300c0.01-90.06-73.26-163.33-163.32-163.33z"
        fill="#231815" p-id="44104"></path>
    <path
        d="M472 196.67h80c16.57 0 30-13.43 30-30s-13.43-30-30-30h-80c-16.57 0-30 13.43-30 30s13.43 30 30 30z"
        fill="#231815" p-id="44105"></path>
</svg>