<svg t="1748172683659" class="icon" viewBox="0 0 1194 1024" version="1.1"
    xmlns="http://www.w3.org/2000/svg" p-id="52895" width="200" height="200">
    <path
        d="M256 85.333333c-93.866667 0-170.666667 76.8-170.666667 170.666667v512c0 93.866667 76.8 170.666667 170.666667 170.666667h682.666667c93.866667 0 170.666667-76.8 170.666666-170.666667V256c0-93.866667-76.8-170.666667-170.666666-170.666667H256z m0-85.333333h682.666667c145.066667 0 256 110.933333 256 256v512c0 145.066667-110.933333 256-256 256H256c-145.066667 0-256-110.933333-256-256V256c0-145.066667 110.933333-256 256-256z m256 366.933333v281.6L776.533333 512 512 366.933333z m42.666667-76.8l264.533333 145.066667c34.133333 25.6 51.2 76.8 34.133333 119.466667l-34.133333 34.133333-264.533333 145.066667c-42.666667 17.066667-93.866667 0-119.466667-34.133334C426.666667 682.666667 426.666667 665.6 426.666667 657.066667V366.933333c0-51.2 34.133333-85.333333 85.333333-85.333333 17.066667 0 25.6 8.533333 42.666667 8.533333z"
        fill="#555656" p-id="52896"></path>
</svg>