<svg t="1748172903876" class="icon" viewBox="0 0 1161 1024" version="1.1"
    xmlns="http://www.w3.org/2000/svg" p-id="67376" width="200" height="200">
    <path
        d="M1118.8224 238.762667c-25.668267-79.940267-84.2752-144.247467-165.000533-180.974933-41.096533-18.670933-84.718933-28.125867-129.706667-28.125867-96.017067 0-185.856 44.270933-243.848533 116.770133-57.992533-72.533333-147.7632-116.770133-243.882667-116.770133-44.919467 0-88.610133 9.454933-129.706667 28.16C125.986133 94.583467 67.3792 158.8224 41.710933 238.7968c-20.957867 65.194667-29.696 171.1104 47.650133 305.4592 81.373867 141.2096 204.049067 247.296 466.090667 446.5664l24.8832 18.875733 24.849067-18.875733c262.075733-199.304533 384.750933-305.425067 466.090667-446.600533C1148.484267 409.873067 1139.8144 303.957333 1118.8224 238.762667zM1000.072533 503.261867C925.0816 633.480533 807.5264 733.115733 580.266667 906.581333c-227.293867-173.4656-344.849067-273.066667-419.84-403.285333C111.104 417.518933 97.0752 334.7456 119.842133 263.850667c18.5344-57.6512 61.474133-104.379733 120.900267-131.413333 30.344533-13.755733 62.5664-20.753067 95.709867-20.753067 88.4736 0 169.642667 50.653867 206.779733 129.194667l37.102933 78.472533 37.102933-78.472533c37.102933-78.506667 118.237867-129.194667 206.7456-129.194667 33.1776 0 65.399467 6.997333 95.744 20.753067 59.426133 27.0336 102.331733 73.693867 120.866133 131.413333C1063.458133 334.779733 1049.3952 417.518933 1000.072533 503.261867z"
        p-id="67377"></path>
    <path
        d="M315.733333 205.789867C307.882667 207.940267 299.895467 210.3296 292.0448 213.0944c-8.0896 2.184533-15.018667 7.8848-22.562133 11.9808C261.9392 229.410133 254.8736 234.461867 249.0368 241.288533L231.3216 261.256533l3.720533-4.539733C230.8096 261.256533 228.625067 264.465067 225.8944 268.0832 223.095467 271.598933 221.115733 275.182933 218.897067 278.801067 214.459733 286.037333 211.114667 293.614933 208.145067 301.294933c-3.3792 7.543467-5.12 15.633067-6.826667 23.620267-2.1504 7.850667-2.935467 15.9744-2.8672 24.098133 0.170667 8.055467-0.989867 16.008533 0.955733 23.825067l5.0176 23.04c1.672533 7.509333 5.768533 14.4384 9.284267 21.230933 3.584 6.792533 7.714133 13.277867 12.0832 19.285333 1.979733-7.714133 3.652267-14.9504 4.9152-21.947733 1.672533-6.997333 1.297067-13.585067 4.130133-20.1728l5.085867-18.8416c1.3312-6.144 4.676267-11.776 6.485333-17.5104 1.809067-5.768533 4.130133-11.229867 7.0656-16.418133 2.833067-5.154133 4.642133-10.683733 8.055467-15.36C264.635733 321.297067 267.093333 316.177067 270.677333 311.978667c2.696533-4.4032 7.031467-9.591467 8.738133-11.4688l3.720533-4.539733c3.549867-3.822933 6.929067-7.7824 10.171733-11.8784 2.594133-4.7104 6.894933-7.9872 11.229867-11.400533C308.906667 269.380267 312.251733 264.704 317.44 261.8368c4.983467-3.003733 9.9328-6.382933 14.9504-9.966933 5.3248-3.106133 11.127467-5.666133 16.759467-9.045333 5.563733-3.754667 11.912533-5.597867 18.090667-8.635733 6.144-3.549867 12.6976-5.495467 19.319467-8.567467 6.656-2.8672 13.4144-5.7344 20.753067-8.669867-13.653333-7.509333-28.9792-11.093333-44.305067-13.038933C347.648 202.1376 331.741867 203.0592 315.733333 205.789867z"
        p-id="67378"></path>
</svg>